#!OML:ASF F:\VICON\USERDATA\INSTALL\Justin_Nancy\Justin_Nancy.ASF
:FULLY-SPECIFIED
:DEGREES
70
root 2.90395 15.6613 2.84289 -31.9022 -61.3049 45.18
lowerback 12.6959 -2.33281 -2.17672
upperback 1.62461 -3.50728 -1.0318
thorax -5.3371 -1.71211 0.741514
lowerneck -14.428 -1.77893 -9.73263
upperneck 10.7329 -0.941815 3.76377
head 5.67163 -0.584017 2.68222
rclavicle 7.15625e-015 1.59028e-015
rhumerus -67.8352 3.05344 -91.733
rradius 115.039
rwrist -11.7215
rhand -17.2727 31.4114
rfingers 7.12502
rthumb 8.97221 1.62219
lclavicle 7.15625e-015 1.59028e-015
lhumerus -35.4924 -24.8903 84.4822
lradius 120.833
lwrist 25.4808
lhand -8.91214 5.13076
lfingers 7.12502
lthumb 17.031 34.4042
rfemur -38.5687 -6.96257 31.0781
rtibia 62.3925
rfoot -14.7327 -11.0669
rtoes 14.759
lfemur 1.10362 -3.14988 -22.2695
ltibia 51.9532
lfoot 16.999 -4.032
ltoes -0.178842
71
root 2.63105 15.6859 3.0644 -31.8859 -62.2532 45.2633
lowerback 12.7378 -1.77553 -2.88133
upperback 1.67992 -2.78725 0.234559
thorax -5.22036 -1.3336 2.34354
lowerneck -14.6759 -1.94672 -10.9022
upperneck 10.5486 -0.857182 3.41236
head 5.65643 -0.614815 2.76187
rclavicle -5.88403e-014 -9.54166e-015
rhumerus -65.5918 4.08893 -90.1333
rradius 114.297
rwrist -12.6305
rhand -16.6275 30.9089
rfingers 7.12502
rthumb 9.59478 1.1474
lclavicle -5.88403e-014 -9.54166e-015
lhumerus -37.7638 -24.8403 87.5976
lradius 117.946
lwrist 23.5816
lhand -9.08717 4.71473
lfingers 7.12502
lthumb 16.8625 34.0026
rfemur -37.0848 -6.27348 31.1038
rtibia 62.0978
rfoot -15.4103 -11.3068
rtoes 12.6729
lfemur -0.89663 -2.53434 -21.3475
ltibia 55.4224
lfoot 16.101 -0.166393
ltoes -0.0840872
72
root 2.34514 15.7206 3.28855 -32.3847 -63.1712 45.8403
lowerback 12.7017 -1.14466 -3.242
upperback 1.83687 -1.95684 1.00968
thorax -5.04294 -0.919611 3.22103
lowerneck -15.3489 -2.34721 -11.4772
upperneck 11.2586 -1.13024 2.94717
head 6.0188 -0.828301 2.67982
rclavicle -6.36111e-015 1.59028e-014
rhumerus -62.9808 4.45649 -89.0236
rradius 113.231
rwrist -12.994
rhand -16.8473 30.8643
rfingers 7.12502
rthumb 9.38271 1.09312
lclavicle -6.36111e-015 1.59028e-014
lhumerus -39.525 -25.0075 89.7967
lradius 115.121
lwrist 23.0211
lhand -9.99649 4.32086
lfingers 7.12502
lthumb 15.987 33.6812
rfemur -35.4013 -5.86449 30.9351
rtibia 61.6535
rfoot -15.9442 -11.6435
rtoes 9.24896
lfemur -2.94439 -2.06145 -20.7745
ltibia 58.7469
lfoot 15.6834 3.96465
ltoes 1.65076
73
root 2.06337 15.7395 3.51582 -33.1339 -63.895 46.5789
lowerback 12.7399 -0.710538 -3.15426
upperback 2.07103 -1.36308 1.22965
thorax -4.85962 -0.637533 3.30299
lowerneck -16.185 -2.67217 -12.0234
upperneck 12.0511 -1.42028 3.5455
head 6.44205 -0.962222 2.93591
rclavicle -2.3059e-014 1.27222e-014
rhumerus -60.3051 4.81831 -88.7139
rradius 112.023
rwrist -13.1116
rhand -17.9566 31.2854
rfingers 7.12502
rthumb 8.31221 1.46893
lclavicle -2.3059e-014 1.27222e-014
lhumerus -41.0424 -25.0801 90.5833
lradius 112.382
lwrist 22.4703
lhand -10.4351 4.13353
lfingers 7.12502
lthumb 15.5646 33.5272
rfemur -33.6136 -5.7126 30.5697
rtibia 61.2603
rfoot -16.8536 -11.887
rtoes 7.40466
lfemur -4.90234 -1.90558 -20.3654
ltibia 61.8381
lfoot 15.3398 8.42321
ltoes 6.14549
74
root 1.78788 15.7508 3.74501 -33.4344 -64.4656 46.9364
lowerback 12.739 -0.548119 -2.60693
upperback 2.26223 -1.08294 1.13087
thorax -4.69245 -0.516692 2.83996
lowerneck -17.1759 -3.09314 -12.0035
upperneck 12.6352 -1.96624 4.23263
head 6.84485 -1.17068 3.10267
rclavicle 1.19271e-014 1.90833e-014
rhumerus -57.5011 5.39388 -89.0491
rradius 110.967
rwrist -13.2015
rhand -18.6291 31.0946
rfingers 7.12502
rthumb 7.66311 1.25344
lclavicle 1.19271e-014 1.90833e-014
lhumerus -42.6377 -24.4035 90.517
lradius 109.658
lwrist 22.3819
lhand -10.0569 4.30482
lfingers 7.12502
lthumb 15.9289 33.6698
rfemur -31.9812 -5.77589 30.2039
rtibia 60.8628
rfoot -18.0177 -11.6667
rtoes 6.78071
lfemur -7.04475 -1.57098 -19.7309
ltibia 64.7139
lfoot 14.6205 11.4744
ltoes 8.33281
